<svg xmlns="http://www.w3.org/2000/svg" xmlns:xlink="http://www.w3.org/1999/xlink" version="1.1" id="Logo" x="0px" y="0px" viewBox="0 0 708.7 141.7" style="enable-background:new 0 0 708.7 141.7;" fill="white" xml:space="preserve">
<g>
	<path d="M79.3,110.1c0,1.7,0,3.2,0,4.8c-14.6,0-29.2,0-43.8,0c0-1.6,0-3.1,0-4.7c5.3-0.9,9-4.1,12.3-7.9c3.3-3.8,5.8-8.1,6.8-13.1   c0.3-1.5,0.4-3,0.5-4.5c0.1-2.1,0-4.2,0-6.4c0-2-0.7-2.6-2.6-2.7c-0.4,0-0.7,0-1.1,0c-2.8-0.4-4.5,1.1-5.7,3.5   c-1.3,2.7-2.8,5.4-5,7.6c-4.4,4.5-9.8,6.1-15.9,5.4C16.2,91,9.1,83.6,8.4,75C7.6,64.7,15,55.6,24.7,54.5   c8.8-1.1,15.7,2.7,19.9,10.9c0.7,1.3,1.4,2.6,2.2,3.7c0.4,0.6,1.1,1.3,1.8,1.4c1.7,0.2,3.4,0.2,5.1,0.2c0.8,0,1.3-0.8,1.3-1.5   c0.1-1.4,0-2.8-0.1-4.2c-0.1-1.2-0.8-2.1-1.9-2.7c-1.7-1-3.4-1.9-5.1-2.8c-4.2-2.4-7.6-5.7-9.3-10.3c-5.3-14.2,4.8-26.3,16.6-27.6   c10-1,19.2,5.5,21.5,14.2c2.2,8.3,0,17-7.8,22.3c-1.3,0.9-2.8,1.7-4.2,2.5c-0.7,0.4-1.5,0.8-2.2,1.2c-1.8,1-2.8,2.5-2.6,4.6   c0.1,0.9,0,1.8,0.1,2.7c0.1,1,0.6,1.5,1.6,1.6c1.3,0.1,2.7,0.1,4,0c1.4-0.1,2.2-1.2,2.9-2.3c0.6-1,1.1-2.1,1.7-3.2   c2.5-4.6,5.9-8.3,11-10c12-3.8,23.7,3.7,25.2,15.7c1.6,13.2-9.7,22.5-21.1,21.2c-7.4-0.9-12.2-5.1-15.5-11.5   c-0.6-1.1-1.2-2.1-1.8-3.2c-0.6-1.1-1.6-1.7-2.8-1.8c-1.2-0.1-2.4-0.1-3.6,0c-1.1,0.1-1.6,0.7-1.7,1.8c-0.7,9,0.4,17.5,6.9,24.4   c1.8,1.9,3.8,3.7,5.9,5.4C74.5,108.8,76.6,109.8,79.3,110.1z"/>
	<path d="M657.7,35c8.4,0,15.6,1.3,22.4,4.8c10,5.1,16.2,13.2,18.8,24.1c1.1,4.4,1.5,8.8,1.3,13.3c-0.4,9.2-2.7,17.8-8.8,25.1   c-4.3,5.2-9.8,8.8-16.2,11.1c-4.6,1.6-9.4,2.4-14.2,2.7c-8,0.4-15.7-0.8-23-4.1c-7.7-3.6-13.5-9.1-17.3-16.8   c-2.4-5-3.6-10.4-4.1-15.9c-0.4-5.3,0-10.5,1.3-15.7c1.6-6.5,4.6-12.2,9.3-17c3.8-3.8,8.3-6.7,13.4-8.6   C646.4,35.9,652.4,35,657.7,35z M676.3,75.3c0.1-3.6-0.3-7.5-1.5-11.2c-1.2-3.7-3-7-6.3-9.3c-5.2-3.5-10.8-3.7-16.5-1.9   c-5.4,1.7-8.3,5.9-9.9,11c-1.5,4.7-1.7,9.5-1.5,14.4c0.2,3.8,0.8,7.6,2.3,11.1c1.8,4.2,4.7,7.2,8.9,8.8c2.3,0.9,4.7,1.1,7.1,1.1   c7.1-0.1,12.6-3.8,15.2-10.4C675.9,84.7,676.4,80.2,676.3,75.3z"/>
	<path d="M256.3,35c7,0,13.7,1.2,20.2,4.1c8.8,4,15,10.5,18.6,19.5c1.8,4.6,2.7,9.4,2.9,14.3c0.3,6.1-0.3,12-2.2,17.7   c-3.8,11.3-11.6,18.8-22.7,22.9c-4.6,1.7-9.4,2.4-14.2,2.6c-7.8,0.4-15.4-0.7-22.5-4c-11.4-5.2-18.2-14.1-20.8-26.3   c-0.9-4.3-1.2-8.6-1-13c0.5-9.2,3.1-17.6,9.3-24.7c4.6-5.2,10.3-8.7,16.9-10.8C245.8,35.7,251,35,256.3,35z M274.3,75.9   c0-4.5-0.5-8.9-2-13c-1.6-4.3-4.3-7.7-8.6-9.6c-3.3-1.4-6.8-1.6-10.3-1.2c-2.8,0.3-5.3,1.3-7.5,3c-3.3,2.5-5.1,6-6.1,9.8   c-1.1,3.9-1.2,8-1.2,12.1c0,3.5,0.5,7,1.5,10.4c1,3.2,2.5,6.1,5.1,8.2c5.2,4.2,11.2,4.7,17.4,2.8c4.8-1.4,7.8-4.9,9.6-9.5   C273.7,84.7,274.2,80.2,274.3,75.9z"/>
	<path d="M440.7,114.9c-0.6,0-1.3,0-1.9,0c-3.7,0-7.4-0.1-11.1,0c-1.5,0.1-2.4-0.4-3.3-1.7c-4.6-6.6-9.3-13.1-14-19.7   c-5-7.1-10.1-14.1-15.1-21.2c-0.4-0.5-0.8-1-1.4-1.5c-0.2,14.6-0.2,29.2-0.2,43.9c-6.2,0-12.3,0-18.6,0c0-0.8,0-1.5,0-2.3   c0-21.7,0-43.4,0-65c0-1.3-0.3-2.3-1.1-3.3c-1.8-2.4-3.4-5-5.2-7.7c9,0,17.8,0,26.7,0c8.8,12.4,17.7,24.9,26.5,37.4   c0.2-0.1,0.3-0.1,0.3-0.1c0,0,0.1-0.1,0.1-0.1c0-0.2,0-0.4,0-0.5c0-12,0-24,0-36.1c0-0.1,0-0.1,0-0.2c0-0.1,0-0.1,0.1-0.3   c5.9,0,11.9,0,17.9,0C440.9,37.6,441.1,111.9,440.7,114.9z"/>
	<path d="M587.3,97.8c0-6.6,0-13,0-19.5c6.9,0,13.8,0,20.7,0c0,10.2,0,20.5,0,30.8c-3.4,2-7,3.6-10.9,4.8c-4.7,1.4-9.6,2-14.5,2.3   c-7.2,0.3-14.2-0.5-21-2.7c-6-1.9-11.3-5-15.8-9.4c-5.1-5.1-8.4-11.2-9.8-18.3c-1.7-8.5-1.5-17,1.3-25.2c3.1-8.9,8.9-15.6,17.3-20   c6.2-3.3,12.8-4.8,19.7-5.3c7.8-0.5,15.5,0.2,22.9,2.9c2.4,0.9,4.7,2,6.8,3.5c0.7,0.5,1,1.1,1,2c0,5.3,0,10.6,0,15.8   c0,0.2-0.1,0.4-0.1,0.6c-1.2,0.4-2.2,0.3-3.3-0.6c-7.3-5.5-15.5-8-24.6-7c-4.9,0.5-9.3,2.2-12.8,5.9c-2.8,3-4.3,6.6-4.9,10.6   c-0.9,5.3-0.8,10.6,0.4,15.8c1.9,7.9,6.8,12.5,14.8,13.8c3.3,0.6,6.6,0.8,9.9,0.1C585.5,98.4,586.4,98.1,587.3,97.8z"/>
	<path d="M478.1,36.4c7.7,0,15.1,0,22.8,0c10.8,26,21.5,52,32.4,78.3c-0.7,0.1-1.2,0.2-1.6,0.2c-6.7,0-13.5,0-20.2,0   c-1.2,0-1.7-0.5-2.1-1.5c-1.3-3.4-2.8-6.9-4.2-10.3c-1.3-0.4-27.8-0.5-30.9-0.1c-0.6,1.3-1.2,2.7-1.8,4.1c-1,2.2-1.9,4.5-2.8,6.7   c-0.3,0.8-0.8,1.1-1.6,1.1c-6,0-11.9,0-17.9,0c-0.2,0-0.3-0.1-0.8-0.2c0.2-0.6,0.4-1.2,0.7-1.8c7.1-16.2,14.2-32.4,21.3-48.6   c2.9-6.6,5.8-13.2,8.7-19.8c0.5-1.1,0.5-2,0-3.1C479.4,39.8,478.8,38.1,478.1,36.4z M490.2,66.2c-3.4,7.7-6.6,15.1-9.7,22.6   c3.8,0.4,17.7,0.3,18.9-0.2C496.3,81.3,493.3,73.9,490.2,66.2z"/>
	<path d="M206.6,90.7c0,6.1,0,12.2,0,18.3c-1.8,1.7-4,2.7-6.3,3.7c-5.3,2.2-10.9,3.1-16.6,3.5c-5.8,0.3-11.5-0.1-17.1-1.5   c-8.5-2.1-15.9-6.2-21.5-13.1c-3.9-4.8-6.3-10.2-7.4-16.2c-1.4-7.2-1.3-14.4,0.5-21.6c3.1-11.9,10.4-20.1,21.7-24.9   c6.2-2.6,12.6-3.7,19.3-3.8c6.5-0.1,12.8,0.6,19,2.7c2.7,0.9,5.3,2.1,7.6,3.8c0.6,0.4,0.9,0.9,0.9,1.6c0,5.5,0,10.9,0,16.4   c0,0.1-0.1,0.2-0.1,0.4c-1.1,0.5-2.1,0.2-3.1-0.6c-7.2-5.6-15.4-8-24.5-7c-5.8,0.6-10.9,2.9-14.4,7.9c-2.1,3-3.1,6.3-3.6,9.8   c-0.7,4.7-0.6,9.4,0.6,14.1c2,8.3,7.4,13,15.7,14.5c9.9,1.8,18.6-0.9,26.2-7.2C204.3,90.6,205.2,90.2,206.6,90.7z"/>
	<path d="M309.9,36.4c7.5,0,14.8,0,22.2,0c0,20.5,0,41,0,61.7c10.8,0.1,21.5,0,32.3,0.1c0,5.6,0,11,0,16.6c-18.2,0-36.3,0-54.5,0   C309.9,88.6,309.9,62.5,309.9,36.4z"/>
</g>
</svg>